<?xml version="1.0" encoding="utf-8"?>
<!-- Generator: Adobe Illustrator 17.1.0, SVG Export Plug-In . SVG Version: 6.00 Build 0)  -->
<!DOCTYPE svg PUBLIC "-//W3C//DTD SVG 1.1//EN" "http://www.w3.org/Graphics/SVG/1.1/DTD/svg11.dtd">
<svg version="1.1" id="Layer_1" xmlns="http://www.w3.org/2000/svg" xmlns:xlink="http://www.w3.org/1999/xlink" x="0px" y="0px"
	 viewBox="1333.6 2170.5 121.6 129.1" enable-background="new 1333.6 2170.5 121.6 129.1" xml:space="preserve">
<g id="bottom_head">
	<path fill="#FFFFAA" d="M1448.7,2250.6l-0.5,3.6l-14.9,2.8l-1.2-11.1l-1.7-15.5l-12.9-6.2l-15.5-4l-4.2,5.5h-6.6l-7.4-2.2l0.1-3.8
		l-18.5-6.2l-3.6,4.8c0,0-5.5,0-6.5-0.8c-1-0.7-0.9-3.1-0.9-3.1l2.7-4.8l-16.2,4.9l-6.5,28.8l5.4,24.4l-3.5,30.7h117.4v-27.9
		L1448.7,2250.6z"/>
</g>
<path id="top_head" fill="#AAAA00" d="M1340.8,2215.1l15.6-5.4h5.7l2.8,4l18.9,6.8l8.1-5.8l9.5,5.6l18.5,5.5l9.5,4.4l1.2,7.4v7.6
	c0,0-3.3,12.7-3.2,13.9c0.1,1.2,20-4.4,20.9-5.4c0.8-1-0.1-3.3-0.1-3.3l-11.6-43.6l2.2-19.7c0,0-6.6-15.2-7.9-15.5
	c-1.4-0.3-17.5,16.1-20.9,18c-4,0.9-28.2-3.3-28.2-3.3l-12.5-13.6l-1.1,4.8l-3.7,13.2c0,0-16.3,11.7-17.9,11.5
	c-1.5-0.1-5.1,9.6-5.1,9.6L1340.8,2215.1z"/>
<path id="lower_back" fill="#AAAA00" d="M1451.2,2261.2l-6,16c0,0-3.9,10.3-3.5,11.7c0.4,1.4,2.9,9.8,2.9,9.8l9.1-0.2v-27.4
	L1451.2,2261.2z"/>
<g id="eye_whites">
	<polygon fill="#FFFFFF" stroke="#FFFFFF" stroke-miterlimit="10" points="1383.9,2223.3 1383.6,2220.8 1391.4,2214.7
		1392.7,2215.1 1389.8,2222 1392.7,2225.9 1390.9,2225.9 1383.9,2223.6 	"/>
	<polygon fill="#FFFFFF" stroke="#FFFFFF" stroke-miterlimit="10" points="1354.3,2214.7 1357.1,2209.7 1360.4,2209.5 1357.2,2214
		1356.4,2217.7 1355.4,2217.5 	"/>
</g>
<g id="nose">
	<path fill="#555555" d="M1349.5,2243.2c-1-0.9-2.5-6.3-2.5-6.3s-0.5-5,0-5.2c0.5-0.2,5.8-2.6,5.8-2.6l7.8,1.6c0,0,5.2,3.4,5.3,4.3
		s-0.3,3.6-0.9,4.3c-0.7,0.7-6.4,3.9-6.4,3.9s-3.2,1.9-4,1.9C1353.9,2245.1,1350.5,2243.9,1349.5,2243.2z"/>
</g>
<path id="jowl" fill="#AAAA00" d="M1339.9,2267.9c0,0,5,8,7.2,9.8c2.2,1.8,9.9,7.2,11.5,8.1c1.7,1,19.9,4.4,23.3,3.4
	c3.5-1,14.4-2,17.2-2.9c2.9-0.9,13.9-11,13.9-11s-13,6.8-14.9,8.8c-1.9,2-14.9,2.4-18.5,3.1c-3.9,0.7-15.9-2.4-18.9-3.1
	c-3.2-0.7-13.9-10.1-13.9-10.1L1339.9,2267.9z"/>
<path id="head_outline" fill="none" stroke="#000000" stroke-width="2" stroke-miterlimit="10" d="M1346.7,2202.4
	c1.8-1.2,17.9-11.5,17.9-11.5l3.9-13.8c0,0,0.6-4.6,0.9-4.3s11.6,12.7,12.6,13.5c1,0.8,26.8,4,28.2,3.3c1.5-0.7,19.5-18,20.9-18
	c1.3,0,7.4,13.4,7.9,15.5c0.5,2.1-2.1,17.9-2.2,19.7c-0.1,2,16.8,60.8,17.1,63.9c0.3,3.3,0,27.9,0,27.9h-117.6l3.4-30.4
	c0,0-5.2-20.9-5.2-24.8c0-3.9,6.1-27.9,7.2-31.7C1342.9,2207.9,1344.9,2203.5,1346.7,2202.4z"/>
<path id="ear" fill="#FFFFAA" d="M1420.3,2202.4c0,0,4.9-7.7,5.9-8.4c0.9-0.7,2.8-1.5,3.2-1.2c0.4,0.3,0.3,6.3,0,6.8
	c-0.3,0.6-4.9,6.8-5.7,6.4C1422.9,2205.6,1420.3,2202.4,1420.3,2202.4z"/>
<g id="face_outline">
	<path fill="none" stroke="#000000" stroke-width="2" stroke-miterlimit="10" d="M1390.9,2225.9c0,0-7.6-2.6-7.1-2.4
		c0.4,0.1-1.1-2.2,0-3c1.1-0.8,6.9-6.1,8.1-5.8c1.1,0.3,8.8,4.9,9.5,5.6c0.7,0.7-3.2,4.9-3.9,5.6
		C1396.8,2226.6,1390.9,2225.9,1390.9,2225.9z"/>
	<path fill="none" stroke="#000000" stroke-width="2" stroke-miterlimit="10" d="M1355.3,2217.7c-1-0.8-1.1-1.7-1-3
		c0.1-1.3,2.2-5,2.8-5.1s3.7-0.5,5.1,0.1c1.4,0.5,2.8,4,2.8,4l-3.4,5C1361.6,2218.8,1356.4,2218.5,1355.3,2217.7z"/>
	<path fill="none" stroke="#000000" stroke-width="2" stroke-miterlimit="10" d="M1349.5,2243.2c0,0-1.8-4.7-2.5-6.3
		c-0.7-1.6-0.7-5,0-5.2c0.7-0.2,4-2.3,5.8-2.6c1.9-0.3,7.8,1.6,7.8,1.6s5.9,3.5,5.6,4.3c-0.2,0.9-0.5,3-1.2,4.3
		c-0.7,1.3-6.4,3.9-6.4,3.9s-2.8,1.5-4.3,1.9C1352.9,2245.5,1349.5,2243.2,1349.5,2243.2z"/>
	<polygon id="right_nostril" fill="#000000" points="1356.5,2237.9 1356.5,2235 1360.8,2235 1362.8,2237.9 1359.7,2239.8 	"/>
	<polygon id="left_nostril" fill="#000000" points="1348,2235 1348,2233.6 1351.7,2233.6 1351.7,2237.2 1348.8,2237.5 	"/>
	<line fill="none" stroke="#000000" stroke-width="2" stroke-miterlimit="10" x1="1361.6" y1="2218.8" x2="1347" y2="2231.1"/>
	<path fill="none" stroke="#000000" stroke-width="2" stroke-miterlimit="10" d="M1349.7,2251.7l13.1,3.9l4.5,1.2
		c1.4,0.4,2.8,0.4,4.2,0.1l10.5-2.3"/>
	<polyline fill="none" stroke="#000000" stroke-miterlimit="10" points="1356.5,2217.9 1357.4,2214 1360.4,2209.9 	"/>
	<path fill="none" stroke="#000000" stroke-width="2" stroke-miterlimit="10" d="M1339.6,2267.7l10.1,9c0,0,8.3,6.8,10.7,7.4
		c2.4,0.6,14.6,4,19.1,3.4c4.7-0.6,16.1-1.9,18.2-3.2c2.2-1.3,13.8-7.9,15.9-10.1c2.1-2.3,12.6-13.7,12.6-13.7"/>
	<path fill="none" stroke="#000000" stroke-width="2" stroke-miterlimit="10" d="M1420.1,2202.4c0,0,5.3-8.5,6.1-8.7s2.8-1.5,3.4-1
		c0.6,0.5,0.2,6,0,7.1c-0.2,1.1-5.7,6.6-5.7,6.6"/>
	<line fill="none" stroke="#000000" stroke-width="2" stroke-miterlimit="10" x1="1352.9" y1="2245.1" x2="1352.9" y2="2247.7"/>
	<line fill="none" stroke="#000000" stroke-width="2" stroke-miterlimit="10" x1="1369.2" y1="2188.5" x2="1375.9" y2="2186.5"/>
	<line fill="none" stroke="#000000" stroke-width="2" stroke-miterlimit="10" x1="1346.7" y1="2233.2" x2="1343.1" y2="2236.8"/>
	<path fill="none" stroke="#000000" stroke-width="2" stroke-miterlimit="10" d="M1385.1,2237.5c0,0,9.9-4.2,11.7-5.1
		c1.9-0.9,5.4-5.3,6.7-6.5c1.2-1.1,6.9-1.1,6.9-1.1s9.7,0.4,10.9,1.1c1.2,0.7,7.5,3.7,8.3,4.3c0.8,0.6,1.2,4.9,1.2,4.9
		s0.4,9.2,0,10.1c-0.4,0.9-1.2,6.7-1.2,6.7"/>
	<g id="Right_eye">
		<path fill="#000000" d="M1392.7,2226.1c0,0,4.1,0.1,4.7-0.2s4.3-5.3,3.9-5.6s-8.3-5.5-9.2-5.3
			c-0.9,0.2-2.5,5-2.6,5.7c-0.1,0.7,0.6,4.9,0.6,4.9l1,0.3L1392.7,2226.1z"/>
	</g>
	<path id="left_eye" fill="#000000" d="M1361.5,2218.7l3.3-4.8c0,0-1.5-3.3-1.9-3.4
		c-0.4-0.1-1.9-1.2-2.5-0.7c-0.6,0.6-3,4.2-3,4.2l-0.8,4.1L1361.5,2218.7z"/>
</g>
</svg>
